<?xml version="1.0" encoding="UTF-8" standalone="no"?>
<svg
   viewBox="0 0 199.99998 14.065702"
   height="14.065702"
   width="199.99998"
   id="svg21"
   xmlns="http://www.w3.org/2000/svg">
  <defs
     id="SvgjsDefs1243" />
  <g
     id="SvgjsG1245"
     transform="matrix(0.43072337,0,0,0.43072337,-0.33680956,-3.4156359)"
     fill="#ffffff">
    <path
       d="m 16.68,8.359 -0.01953,0.078125 c 2.1875,0 4.2383,0.41016 6.1719,1.25 1.9336,0.83984 3.6328,1.9727 5.0977,3.3984 l -4.4922,4.4922 c -1.8945,-1.875 -4.1406,-2.8125 -6.7383,-2.8125 -2.6367,0 -4.8828,0.9375 -6.7383,2.8125 -1.8555,1.875 -2.793,4.1211 -2.793,6.7383 0,2.6367 0.9375,4.8828 2.793,6.7383 1.8555,1.8555 4.1016,2.793 6.7383,2.793 2.6367,0 4.8828,-0.9375 6.7578,-2.8125 l 4.4922,4.4922 c -1.4648,1.4453 -3.1641,2.5781 -5.0977,3.418 -1.9336,0.8399 -3.9844,1.25 -6.1719,1.25 -4.375,0 -8.125,-1.5625 -11.23,-4.668 -3.105,-3.1055 -4.668,-6.8555 -4.668,-11.23 0,-4.3745 1.5625,-8.125 4.668,-11.25 3.1055,-3.125 6.8555,-4.6875 11.23,-4.6875 z m 32.557937,0.157 h 6.347701 v 12.656 6.3281 c 0,3.4961 -1.2305,6.4844 -3.7109,8.9648 -2.480401,2.4804 -5.468801,3.7109 -8.9453,3.7109 -3.4961,0 -6.4844,-1.2305 -8.9648,-3.7109 -2.4804,-2.4804 -3.7109,-5.4688 -3.7109,-8.9648 V 21.172 8.516 h 6.3477 v 12.656 5.6641 0.64453 c 0,1.7383 0.625,3.2227 1.8555,4.4531 1.2305,1.2304 2.7148,1.8555 4.4531,1.8555 1.7188,0 3.2031,-0.625 4.4531,-1.8555 1.25,-1.2305 1.875,-2.7148 1.875,-4.4531 V 26.8361 21.172 8.516 Z m 18.808969,25.2731 -0.01953,-0.03906 c 1.7383,0 3.1836,-1.4453 3.1836,-3.1836 0,-1.3477 -0.52734,-2.207 -1.6016,-2.5977 -2.2656,-0.83984 -1.7188,-0.64453 -3.9258,-1.4063 -2.3242,-0.80078 -4.4727,-2.3828 -5.918,-4.3555 -0.85938,-1.1719 -1.2891,-2.6172 -1.2891,-4.3555 0,-2.6172 0.9375,-4.8633 2.8125,-6.7383 1.875,-1.875 4.1211,-2.8125 6.7578,-2.8125 2.6172,0 4.8633,0.9375 6.7383,2.8125 1.875,1.875 2.8125,4.1211 2.8125,6.7383 h -6.3477 c 0,-1.7188 -1.4453,-3.1641 -3.1641,-3.1641 -1.7383,0 -3.1836,1.4453 -3.1836,3.1836 0,1.1328 0.44922,1.9922 1.3672,2.5781 1.875,1.2109 1.6602,0.97656 3.9063,1.6406 2.4219,0.70313 4.6094,2.207 6.1133,4.1406 0.87891,1.1328 1.3281,2.5977 1.3281,4.375 0,2.6367 -0.9375,4.8828 -2.8125,6.7578 -1.875,1.875 -4.1211,2.8125 -6.7383,2.8125 -2.6367,0 -4.8828,-0.9375 -6.7578,-2.8125 -1.875,-1.875 -2.8125,-4.1211 -2.8125,-6.7578 h 6.3672 c 0,1.7578 1.4258,3.1836 3.1836,3.1836 z M 87.988313,8.516 h 6.3086 7.871097 v 6.2891 h -7.871097 v 25.195 h -6.3086 v -25.195 h -7.8711 V 8.516 Z M 120.01984,8.359 c 4.375,0 8.125,1.5625 11.25,4.6875 3.125,3.125 4.6875,6.875 4.6875,11.25 0,4.375 -1.5625,8.125 -4.6875,11.23 -3.125,3.105 -6.875,4.668 -11.25,4.668 -4.375,0 -8.125,-1.5625 -11.23,-4.668 -3.105,-3.1055 -4.668,-6.8555 -4.668,-11.23 0,-4.3745 1.5625,-8.125 4.668,-11.25 3.1055,-3.125 6.8555,-4.6875 11.23,-4.6875 z m 0,6.348 c -2.6367,0 -4.8828,0.9375 -6.7383,2.8125 -1.8555,1.875 -2.793,4.1211 -2.793,6.7383 0,2.6367 0.9375,4.8828 2.793,6.7383 1.8555,1.8555 4.1016,2.793 6.7383,2.793 2.6172,0 4.8633,-0.9375 6.7383,-2.793 1.875,-1.8555 2.8125,-4.1016 2.8125,-6.7383 0,-2.6172 -0.9375,-4.8633 -2.8125,-6.7383 -1.875,-1.875 -4.1211,-2.8125 -6.7383,-2.8125 z m 18.24188,-6.777 15.352,21.055 15.352,-21.055 V 40 h -6.3086 V 27.012 l -9.043,12.48 -9.043,-12.48 V 40 h -6.3086 V 7.93 Z m 60.66437,0.429 -0.0195,0.078125 c 2.1875,0 4.2383,0.41016 6.1719,1.25 1.9336,0.83984 3.6328,1.9727 5.0977,3.3984 l -4.4922,4.4922 c -1.8945,-1.875 -4.1406,-2.8125 -6.7383,-2.8125 -2.6367,0 -4.8828,0.9375 -6.7383,2.8125 -1.8555,1.875 -2.793,4.1211 -2.793,6.7383 0,2.6367 0.9375,4.8828 2.793,6.7383 1.8555,1.8555 4.1016,2.793 6.7383,2.793 2.6367,0 4.8828,-0.9375 6.7578,-2.8125 l 4.4922,4.4922 c -1.4648,1.4453 -3.1641,2.5781 -5.0977,3.418 -1.9336,0.8399 -3.9844,1.25 -6.1719,1.25 -4.375,0 -8.125,-1.5625 -11.23,-4.668 -3.105,-3.1055 -4.668,-6.8555 -4.668,-11.23 0,-4.3745 1.5625,-8.125 4.668,-11.25 3.1055,-3.125 6.8555,-4.6875 11.23,-4.6875 z m 28.71094,0 c 4.375,0 8.125,1.5625 11.25,4.6875 3.125,3.125 4.6875,6.875 4.6875,11.25 0,4.375 -1.5625,8.125 -4.6875,11.23 -3.125,3.105 -6.875,4.668 -11.25,4.668 -4.375,0 -8.125,-1.5625 -11.23,-4.668 -3.105,-3.1055 -4.668,-6.8555 -4.668,-11.23 0,-4.3745 1.5625,-8.125 4.668,-11.25 3.1055,-3.125 6.8555,-4.6875 11.23,-4.6875 z m 0,6.348 c -2.6367,0 -4.8828,0.9375 -6.7383,2.8125 -1.8555,1.875 -2.793,4.1211 -2.793,6.7383 0,2.6367 0.9375,4.8828 2.793,6.7383 1.8555,1.8555 4.1016,2.793 6.7383,2.793 2.6172,0 4.8633,-0.9375 6.7383,-2.793 1.875,-1.8555 2.8125,-4.1016 2.8125,-6.7383 0,-2.6172 -0.9375,-4.8633 -2.8125,-6.7383 -1.875,-1.875 -4.1211,-2.8125 -6.7383,-2.8125 z m 18.24188,-6.777 18.887,17.988 V 8.516 h 6.3086 v 32.07 l -18.887,-18.008 V 40 h -6.3086 z m 35.80081,0.586 h 6.3086 7.8711 v 6.2891 h -7.8711 v 25.195 h -6.3086 v -25.195 h -7.8711 V 8.516 Z M 298.59375,40 298.57422,8.477 h 10.234 c 3.0273,0 6.0156,1.0547 8.1836,3.2227 2.168,2.168 3.0469,4.1992 3.0469,7.2266 v 0.97656 c 0,2.3438 -0.66406,4.0625 -1.9922,5.9375 -1.32814,1.875 -2.4414,2.4219 -4.5117,3.2031 l 7.1094,10.957 h -7.6953 l -8.0469,-12.305 v 12.305 h -6.3086 z m 6.2891,-16.367 4.5117,0.01953 c 1.3086,0 1.9727,-0.33203 2.8906,-1.25 0.9179,-0.91797 1.25,-1.9727 1.25,-3.2813 0,-1.2891 -0.33203,-2.1484 -1.25,-3.0859 -0.91797,-0.9375 -2.5586,-1.2695 -3.8672,-1.2695 h -3.5352 v 8.8672 z M 338.69172,8.359 c 4.375,0 8.125,1.5625 11.25,4.6875 3.125,3.125 4.6875,6.875 4.6875,11.25 0,4.375 -1.5625,8.125 -4.6875,11.23 -3.125,3.105 -6.875,4.668 -11.25,4.668 -4.375,0 -8.125,-1.5625 -11.23,-4.668 -3.105,-3.1055 -4.668,-6.8555 -4.668,-11.23 0,-4.3745 1.5625,-8.125 4.668,-11.25 3.1055,-3.125 6.8555,-4.6875 11.23,-4.6875 z m 0,6.348 c -2.6367,0 -4.8828,0.9375 -6.7383,2.8125 -1.8555,1.875 -2.793,4.1211 -2.793,6.7383 0,2.6367 0.9375,4.8828 2.793,6.7383 1.8555,1.8555 4.1016,2.793 6.7383,2.793 2.6172,0 4.8633,-0.9375 6.7383,-2.793 1.875,-1.8555 2.8125,-4.1016 2.8125,-6.7383 0,-2.6172 -0.9375,-4.8633 -2.8125,-6.7383 -1.875,-1.875 -4.1211,-2.8125 -6.7383,-2.8125 z m 18.24187,-6.191 h 6.3086 v 25.176 h 12.578 v 6.3086 h -18.887 V 8.5166 Z m 21.23047,0 h 6.3086 v 25.176 h 12.578 v 6.3086 h -18.887 V 8.5166 Z m 21.23047,0 h 18.887 v 6.2891 h -12.578 v 6.3086 h 9.4336 v 6.2891 h -9.4336 v 6.2891 h 12.578 v 6.3086 h -12.578 -6.3086 V 8.5165 Z M 421.21094,40 421.19141,8.477 h 10.234 c 3.0273,0 6.0156,1.0547 8.1836,3.2227 2.168,2.168 3.0469,4.1992 3.0469,7.2266 v 0.97656 c 0,2.3438 -0.66406,4.0625 -1.9922,5.9375 -1.32814,1.875 -2.4414,2.4219 -4.5117,3.2031 l 7.1094,10.957 h -7.6953 l -8.0469,-12.305 v 12.305 h -6.3086 z m 6.2891,-16.367 4.5117,0.01953 c 1.3086,0 1.9727,-0.33203 2.8906,-1.25 0.9179,-0.91797 1.25,-1.9727 1.25,-3.2813 0,-1.2891 -0.33203,-2.1484 -1.25,-3.0859 -0.91797,-0.9375 -2.5586,-1.2695 -3.8672,-1.2695 h -3.5352 v 8.8672 z m 28.04687,10.1561 -0.0195,-0.03906 c 1.7383,0 3.1836,-1.4453 3.1836,-3.1836 0,-1.3477 -0.52734,-2.207 -1.6016,-2.5977 -2.2656,-0.83984 -1.7188,-0.64453 -3.9258,-1.4063 -2.3242,-0.80078 -4.4727,-2.3828 -5.918,-4.3555 -0.85938,-1.1719 -1.2891,-2.6172 -1.2891,-4.3555 0,-2.6172 0.9375,-4.8633 2.8125,-6.7383 1.875,-1.875 4.1211,-2.8125 6.7578,-2.8125 2.6172,0 4.8633,0.9375 6.7383,2.8125 1.875,1.875 2.8125,4.1211 2.8125,6.7383 h -6.3477 c 0,-1.7188 -1.4453,-3.1641 -3.1641,-3.1641 -1.7383,0 -3.1836,1.4453 -3.1836,3.1836 0,1.1328 0.44922,1.9922 1.3672,2.5781 1.875,1.2109 1.6602,0.97656 3.9063,1.6406 2.4219,0.70313 4.6094,2.207 6.1133,4.1406 0.87891,1.1328 1.3281,2.5977 1.3281,4.375 0,2.6367 -0.9375,4.8828 -2.8125,6.7578 -1.875,1.875 -4.1211,2.8125 -6.7383,2.8125 -2.6367,0 -4.8828,-0.9375 -6.7578,-2.8125 -1.875,-1.875 -2.8125,-4.1211 -2.8125,-6.7578 h 6.3672 c 0,1.7578 1.4258,3.1836 3.1836,3.1836 z"
       id="path18" />
  </g>
</svg>
