<svg viewBox="0 0 320 97.10767279947957" height="97.10767279947957" width="320" xmlns="http://www.w3.org/2000/svg"
     style="width: 320px; height: 97.1077px; position: absolute; top: 50%; left: 50%; transform: translate(-50%, -50%) scale(0.599844); z-index: 0; cursor: pointer;">
  <defs id="SvgjsDefs1243"></defs>
  <g id="SvgjsG1244"
     transform="matrix(1.1106905233961308,0,0,1.1106905233961308,-5.554308480497371,-6.9529218714396395)"
     fill="#ffffff"><title >ALL</title>
    <path
          d="M18.85,93.69a12.27,12.27,0,0,1-4.85-1c-9.46-4-11.85-19.77-5.31-35.07s19.54-24.46,29-20.43a12.62,12.62,0,0,1,5.39,4.48,52.11,52.11,0,0,0,6.92.36,43.74,43.74,0,0,0,7-.42,12.62,12.62,0,0,1,5.35-4.42c9.46-4,22.47,5.13,29,20.43h0c6.53,15.3,4.15,31-5.31,35.07-7.64,3.26-17.89-2.08-25-13A37.07,37.07,0,0,0,50,78.4a30.78,30.78,0,0,0-11.36,1.92C32.9,88.8,25.46,93.69,18.85,93.69ZM50,76.44A38.13,38.13,0,0,1,61.91,78a1,1,0,0,1,.52.4c6.62,10.29,16,15.45,22.81,12.54,8.47-3.62,10.39-18.2,4.28-32.5h0c-6.11-14.31-18-23-26.43-19.39a10.81,10.81,0,0,0-4.73,4.06,1,1,0,0,1-.64.42A43.26,43.26,0,0,1,50,44a51.55,51.55,0,0,1-7.64-.45,1,1,0,0,1-.67-.43A10.82,10.82,0,0,0,36.92,39C28.45,35.4,16.59,44.1,10.49,58.41S6.3,87.3,14.77,90.91C21.39,93.74,30.61,88.83,37.18,79a1,1,0,0,1,.44-.36A32.39,32.39,0,0,1,50,76.44Z"></path>
    <path
          d="M31.5,71.43H25.8a1,1,0,0,1-1-1V65.74H20.11a1,1,0,0,1-1-1V59.06a1,1,0,0,1,1-1h4.71V53.37a1,1,0,0,1,1-1H31.5a1,1,0,0,1,1,1v4.71h4.72a1,1,0,0,1,1,1v5.69a1,1,0,0,1-1,1H32.47v4.71A1,1,0,0,1,31.5,71.43Zm-4.71-2h3.73V64.76a1,1,0,0,1,1-1h4.72V60H31.5a1,1,0,0,1-1-1V54.35H26.78v4.71a1,1,0,0,1-1,1H21.09v3.74H25.8a1,1,0,0,1,1,1Z"></path>
    <path
          d="M72.25,60.64a4.35,4.35,0,1,1,4.35-4.35A4.35,4.35,0,0,1,72.25,60.64Zm0-6.74a2.39,2.39,0,1,0,2.39,2.39A2.39,2.39,0,0,0,72.25,53.9Z"></path>
    <path
          d="M72.25,75a4.35,4.35,0,1,1,4.35-4.35A4.36,4.36,0,0,1,72.25,75Zm0-6.74a2.39,2.39,0,1,0,2.39,2.39A2.39,2.39,0,0,0,72.25,68.28Z"></path>
    <path
          d="M65.06,67.84a4.35,4.35,0,1,1,4.35-4.35A4.36,4.36,0,0,1,65.06,67.84Zm0-6.74a2.39,2.39,0,1,0,2.39,2.39A2.39,2.39,0,0,0,65.06,61.09Z"></path>
    <path
          d="M79.44,67.84a4.35,4.35,0,1,1,4.35-4.35A4.36,4.36,0,0,1,79.44,67.84Zm0-6.74a2.39,2.39,0,1,0,2.39,2.39A2.39,2.39,0,0,0,79.44,61.09Z"></path>
    <path
          d="M50,44a1,1,0,0,1-1-1c0-14.38,7.35-23.68,18.73-23.68h3.6c4,0,13.41-1.17,13.41-12.06a1,1,0,0,1,2,0c0,8.78-5.74,14-15.36,14h-3.6C57.56,21.31,51,29.84,51,43A1,1,0,0,1,50,44Z"></path>
  </g>
  <g id="SvgjsG1245"
     transform="matrix(0.4307233741960577,0,0,0.4307233741960577,119.66318723269565,38.58436351117892)" fill="#ffffff">
    <path
      d="M16.68 8.359000000000002 l-0.019531 0.078125 c2.1875 0 4.2383 0.41016 6.1719 1.25 s3.6328 1.9727 5.0977 3.3984 l-4.4922 4.4922 c-1.8945 -1.875 -4.1406 -2.8125 -6.7383 -2.8125 c-2.6367 0 -4.8828 0.9375 -6.7383 2.8125 s-2.793 4.1211 -2.793 6.7383 c0 2.6367 0.9375 4.8828 2.793 6.7383 s4.1016 2.793 6.7383 2.793 s4.8828 -0.9375 6.7578 -2.8125 l4.4922 4.4922 c-1.4648 1.4453 -3.1641 2.5781 -5.0977 3.418 s-3.9844 1.25 -6.1719 1.25 c-4.375 0 -8.125 -1.5625 -11.23 -4.668 s-4.668 -6.8555 -4.668 -11.23 s1.5625 -8.125 4.668 -11.25 s6.8555 -4.6875 11.23 -4.6875 z M49.2379375 8.515999999999998 l6.3477 0 l0 12.656 l0 6.3281 c0 3.4961 -1.2305 6.4844 -3.7109 8.9648 s-5.4688 3.7109 -8.9453 3.7109 c-3.4961 0 -6.4844 -1.2305 -8.9648 -3.7109 s-3.7109 -5.4688 -3.7109 -8.9648 l0 -6.3281 l0 -12.656 l6.3477 0 l0 12.656 l0 5.6641 l0 0.64453 c0 1.7383 0.625 3.2227 1.8555 4.4531 s2.7148 1.8555 4.4531 1.8555 c1.7188 0 3.2031 -0.625 4.4531 -1.8555 s1.875 -2.7148 1.875 -4.4531 l0 -0.64453 l0 -5.6641 l0 -12.656 z M68.04690625 33.7891 l-0.019531 -0.039063 c1.7383 0 3.1836 -1.4453 3.1836 -3.1836 c0 -1.3477 -0.52734 -2.207 -1.6016 -2.5977 c-2.2656 -0.83984 -1.7188 -0.64453 -3.9258 -1.4063 c-2.3242 -0.80078 -4.4727 -2.3828 -5.918 -4.3555 c-0.85938 -1.1719 -1.2891 -2.6172 -1.2891 -4.3555 c0 -2.6172 0.9375 -4.8633 2.8125 -6.7383 s4.1211 -2.8125 6.7578 -2.8125 c2.6172 0 4.8633 0.9375 6.7383 2.8125 s2.8125 4.1211 2.8125 6.7383 l-6.3477 0 c0 -1.7188 -1.4453 -3.1641 -3.1641 -3.1641 c-1.7383 0 -3.1836 1.4453 -3.1836 3.1836 c0 1.1328 0.44922 1.9922 1.3672 2.5781 c1.875 1.2109 1.6602 0.97656 3.9063 1.6406 c2.4219 0.70313 4.6094 2.207 6.1133 4.1406 c0.87891 1.1328 1.3281 2.5977 1.3281 4.375 c0 2.6367 -0.9375 4.8828 -2.8125 6.7578 s-4.1211 2.8125 -6.7383 2.8125 c-2.6367 0 -4.8828 -0.9375 -6.7578 -2.8125 s-2.8125 -4.1211 -2.8125 -6.7578 l6.3672 0 c0 1.7578 1.4258 3.1836 3.1836 3.1836 z M87.9883125 8.515999999999998 l6.3086 0 l7.8711 0 l0 6.2891 l-7.8711 0 l0 25.195 l-6.3086 0 l0 -25.195 l-7.8711 0 l0 -6.2891 l7.8711 0 z M120.01984375 8.359000000000002 c4.375 0 8.125 1.5625 11.25 4.6875 s4.6875 6.875 4.6875 11.25 s-1.5625 8.125 -4.6875 11.23 s-6.875 4.668 -11.25 4.668 s-8.125 -1.5625 -11.23 -4.668 s-4.668 -6.8555 -4.668 -11.23 s1.5625 -8.125 4.668 -11.25 s6.8555 -4.6875 11.23 -4.6875 z M120.01984375 14.707 c-2.6367 0 -4.8828 0.9375 -6.7383 2.8125 s-2.793 4.1211 -2.793 6.7383 c0 2.6367 0.9375 4.8828 2.793 6.7383 s4.1016 2.793 6.7383 2.793 c2.6172 0 4.8633 -0.9375 6.7383 -2.793 s2.8125 -4.1016 2.8125 -6.7383 c0 -2.6172 -0.9375 -4.8633 -2.8125 -6.7383 s-4.1211 -2.8125 -6.7383 -2.8125 z M138.26171875 7.93 l15.352 21.055 l15.352 -21.055 l0 32.07 l-6.3086 0 l0 -12.988 l-9.043 12.48 l-9.043 -12.48 l0 12.988 l-6.3086 0 l0 -32.07 z M198.92609375 8.359000000000002 l-0.019531 0.078125 c2.1875 0 4.2383 0.41016 6.1719 1.25 s3.6328 1.9727 5.0977 3.3984 l-4.4922 4.4922 c-1.8945 -1.875 -4.1406 -2.8125 -6.7383 -2.8125 c-2.6367 0 -4.8828 0.9375 -6.7383 2.8125 s-2.793 4.1211 -2.793 6.7383 c0 2.6367 0.9375 4.8828 2.793 6.7383 s4.1016 2.793 6.7383 2.793 s4.8828 -0.9375 6.7578 -2.8125 l4.4922 4.4922 c-1.4648 1.4453 -3.1641 2.5781 -5.0977 3.418 s-3.9844 1.25 -6.1719 1.25 c-4.375 0 -8.125 -1.5625 -11.23 -4.668 s-4.668 -6.8555 -4.668 -11.23 s1.5625 -8.125 4.668 -11.25 s6.8555 -4.6875 11.23 -4.6875 z M227.63703125 8.359000000000002 c4.375 0 8.125 1.5625 11.25 4.6875 s4.6875 6.875 4.6875 11.25 s-1.5625 8.125 -4.6875 11.23 s-6.875 4.668 -11.25 4.668 s-8.125 -1.5625 -11.23 -4.668 s-4.668 -6.8555 -4.668 -11.23 s1.5625 -8.125 4.668 -11.25 s6.8555 -4.6875 11.23 -4.6875 z M227.63703125 14.707 c-2.6367 0 -4.8828 0.9375 -6.7383 2.8125 s-2.793 4.1211 -2.793 6.7383 c0 2.6367 0.9375 4.8828 2.793 6.7383 s4.1016 2.793 6.7383 2.793 c2.6172 0 4.8633 -0.9375 6.7383 -2.793 s2.8125 -4.1016 2.8125 -6.7383 c0 -2.6172 -0.9375 -4.8633 -2.8125 -6.7383 s-4.1211 -2.8125 -6.7383 -2.8125 z M245.87890625 7.93 l18.887 17.988 l0 -17.402 l6.3086 0 l0 32.07 l-18.887 -18.008 l0 17.422 l-6.3086 0 l0 -32.07 z M281.67971875 8.515999999999998 l6.3086 0 l7.8711 0 l0 6.2891 l-7.8711 0 l0 25.195 l-6.3086 0 l0 -25.195 l-7.8711 0 l0 -6.2891 l7.8711 0 z M298.59375 40 l-0.019531 -31.523 l10.234 0 c3.0273 0 6.0156 1.0547 8.1836 3.2227 s3.0469 4.1992 3.0469 7.2266 l0 0.97656 c0 2.3438 -0.66406 4.0625 -1.9922 5.9375 s-2.4414 2.4219 -4.5117 3.2031 l7.1094 10.957 l-7.6953 0 l-8.0469 -12.305 l0 12.305 l-6.3086 0 z M304.88285 23.633 l4.5117 0.019531 c1.3086 0 1.9727 -0.33203 2.8906 -1.25 s1.25 -1.9727 1.25 -3.2813 c0 -1.2891 -0.33203 -2.1484 -1.25 -3.0859 s-2.5586 -1.2695 -3.8672 -1.2695 l-3.5352 0 l0 8.8672 z M338.69171875 8.359000000000002 c4.375 0 8.125 1.5625 11.25 4.6875 s4.6875 6.875 4.6875 11.25 s-1.5625 8.125 -4.6875 11.23 s-6.875 4.668 -11.25 4.668 s-8.125 -1.5625 -11.23 -4.668 s-4.668 -6.8555 -4.668 -11.23 s1.5625 -8.125 4.668 -11.25 s6.8555 -4.6875 11.23 -4.6875 z M338.69171875 14.707 c-2.6367 0 -4.8828 0.9375 -6.7383 2.8125 s-2.793 4.1211 -2.793 6.7383 c0 2.6367 0.9375 4.8828 2.793 6.7383 s4.1016 2.793 6.7383 2.793 c2.6172 0 4.8633 -0.9375 6.7383 -2.793 s2.8125 -4.1016 2.8125 -6.7383 c0 -2.6172 -0.9375 -4.8633 -2.8125 -6.7383 s-4.1211 -2.8125 -6.7383 -2.8125 z M356.93359375 8.515999999999998 l6.3086 0 l0 25.176 l12.578 0 l0 6.3086 l-18.887 0 l0 -31.484 z M378.1640625 8.515999999999998 l6.3086 0 l0 25.176 l12.578 0 l0 6.3086 l-18.887 0 l0 -31.484 z M399.39453125 8.515999999999998 l18.887 0 l0 6.2891 l-12.578 0 l0 6.3086 l9.4336 0 l0 6.2891 l-9.4336 0 l0 6.2891 l12.578 0 l0 6.3086 l-12.578 0 l-6.3086 0 l0 -31.484 z M421.2109375 40 l-0.019531 -31.523 l10.234 0 c3.0273 0 6.0156 1.0547 8.1836 3.2227 s3.0469 4.1992 3.0469 7.2266 l0 0.97656 c0 2.3438 -0.66406 4.0625 -1.9922 5.9375 s-2.4414 2.4219 -4.5117 3.2031 l7.1094 10.957 l-7.6953 0 l-8.0469 -12.305 l0 12.305 l-6.3086 0 z M427.5000375 23.633 l4.5117 0.019531 c1.3086 0 1.9727 -0.33203 2.8906 -1.25 s1.25 -1.9727 1.25 -3.2813 c0 -1.2891 -0.33203 -2.1484 -1.25 -3.0859 s-2.5586 -1.2695 -3.8672 -1.2695 l-3.5352 0 l0 8.8672 z M455.54690625 33.7891 l-0.019531 -0.039063 c1.7383 0 3.1836 -1.4453 3.1836 -3.1836 c0 -1.3477 -0.52734 -2.207 -1.6016 -2.5977 c-2.2656 -0.83984 -1.7188 -0.64453 -3.9258 -1.4063 c-2.3242 -0.80078 -4.4727 -2.3828 -5.918 -4.3555 c-0.85938 -1.1719 -1.2891 -2.6172 -1.2891 -4.3555 c0 -2.6172 0.9375 -4.8633 2.8125 -6.7383 s4.1211 -2.8125 6.7578 -2.8125 c2.6172 0 4.8633 0.9375 6.7383 2.8125 s2.8125 4.1211 2.8125 6.7383 l-6.3477 0 c0 -1.7188 -1.4453 -3.1641 -3.1641 -3.1641 c-1.7383 0 -3.1836 1.4453 -3.1836 3.1836 c0 1.1328 0.44922 1.9922 1.3672 2.5781 c1.875 1.2109 1.6602 0.97656 3.9063 1.6406 c2.4219 0.70313 4.6094 2.207 6.1133 4.1406 c0.87891 1.1328 1.3281 2.5977 1.3281 4.375 c0 2.6367 -0.9375 4.8828 -2.8125 6.7578 s-4.1211 2.8125 -6.7383 2.8125 c-2.6367 0 -4.8828 -0.9375 -6.7578 -2.8125 s-2.8125 -4.1211 -2.8125 -6.7578 l6.3672 0 c0 1.7578 1.4258 3.1836 3.1836 3.1836 z"></path>
  </g>
</svg>
